<svg xmlns="http://www.w3.org/2000/svg" viewBox="0 0 2048 2048"><path d="M1352 313.4c-47.9 14.8-95.8 29.5-134 41.1-15.7 4.8-57.5 17.6-93 28.5s-67.2 20.6-70.5 21.5c-4.5 1.3-55.7 31.6-201 118.8-107.2 64.3-206.7 124.1-221 132.7s-53 31.8-86 51.5c-49.8 29.8-119.7 71.7-204.7 122.8l-14.8 8.9v22.2c0 15.9.3 22.5 1.2 23.4 1.7 1.7 4.2 1.5 10.7-.8 8.1-2.8 55.8-18 56.5-18 .3 0 .6 52.1.6 115.8 0 109.1-.1 116-1.7 117.4-1.7 1.5-48.6 29.6-126.3 75.8-20.6 12.3-38.3 23-39.2 23.8-1 .8-1.8 2.8-1.8 4.3 0 2.6 2 4 27.3 19 14.9 8.9 31.5 18.8 36.7 21.9s26.8 16 48 28.5c35.1 20.8 81.8 48.5 193.5 115 58.8 35 100.1 59.5 125.5 74.5 21.2 12.5 41.9 24.8 90 53.5 11.3 6.7 42.8 25.4 70 41.5 73.2 43.4 95.4 56.5 150.5 89.5 27.5 16.4 51.2 30.5 52.6 31.4 3.1 1.7-3.4 5.3 83.9-46.6 30.5-18.1 71.7-42.6 91.5-54.3 39.6-23.4 89.7-53.2 133-79 15.4-9.2 39.3-23.4 53-31.5 13.8-8.1 59-35 100.5-59.8 41.5-24.7 85-50.6 96.5-57.5 11.6-6.9 31.4-18.7 44-26.2 12.7-7.5 42.6-25.3 66.5-39.5 96.3-57.1 129.4-77.1 130.4-78.8.8-1.3.7-2.4-.4-4.3-1-1.8-20.7-14-62.5-39-33.5-20-71.2-42.5-83.7-50.1l-22.8-13.7V977l.1-120.5 33.6-20c18.4-11 34.2-20.6 34.9-21.3 1.1-1 1.4-5.4 1.4-19.6v-18.3l-5.7-8.4c-3.1-4.6-14.4-21-25.2-36.4-10.7-15.4-28.3-40.8-39.1-56.5s-27.4-39.8-37-53.5c-45.3-65.4-65.6-94.9-89-129-13.9-20.4-28.8-42-33-48-7.9-11.3-32.6-47.3-57.4-83.5-24.5-35.9-41.7-60.5-42.4-60.7-.4 0-18.5 5.4-40.2 12.1m53.8 22.7c8.5 12.3 24.3 35.2 35 50.9s24.6 35.7 30.7 44.5c6.2 8.8 22 31.7 35.2 51 62.3 90.9 64 93.4 144.8 210 58.3 84.1 57.8 83.4 57.2 85-.5 1.2-204.8 123.9-538.7 323.7-151.6 90.7-143.3 85.8-144.7 85.8-.6 0-7.4-8.9-15-19.7-29-41.3-55.7-79.6-102.9-147.8-8.8-12.7-22.3-32-30-43s-23.5-33.7-35.1-50.5-36.3-52.4-54.9-79.1c-37.8-54.2-66.6-96.1-77-111.8l-6.8-10.3 2.5-2.2c2.7-2.3 9.8-6.6 105.4-63.8 33.6-20.1 102-61.2 152-91.3 50.1-30.1 99.3-59.7 109.5-65.8 20.8-12.4 152.2-91 190.5-113.9 103.4-62 125-74.8 125.8-74.5.6.2 8 10.4 16.5 22.8m-54.8-11.7c-1.5 1.3-222.3 133.8-288.5 173.1-18.7 11.1-43.7 26-55.5 33.2-87.8 53.1-247.3 148.8-308 184.8-3.7 2.2-21.8 8.5-54.5 19-58.4 18.7-66 21.1-151 48.8-90.2 29.4-113.6 36.8-114.7 36.5-.5-.2 51.2-31.6 114.9-69.8S648.4 657.2 696 628.6c47.6-28.5 147.2-88.4 221.5-132.9l134.9-81 22.1-6.8c12.1-3.7 43.4-13.3 69.5-21.4 26.1-8 63.9-19.6 84-25.6 36.9-11.2 88.5-27 110.5-33.9 13.6-4.3 14.5-4.5 12.5-2.6M726.5 774.5c14.8 21.4 39.5 57 54.9 79S817.3 905 827 919c19.6 28.4 36.2 52.2 51.5 74 13.7 19.6 84.3 121.2 97.9 140.8 5.9 8.6 17.5 25.2 25.6 36.8s15.3 22 15.9 23.2c.7 1.4 1.1 6.2.9 12.9l-.3 10.8-6.2-8.5c-12.8-17.4-77.5-109.2-170.3-241.5-14.7-20.9-37.2-53.1-50.2-71.5-43.6-62.2-59.2-84.5-76.8-109.8-10.8-15.5-18.3-25.4-19.6-25.8-1.2-.3-27.3 7.7-65 20-34.6 11.2-101.6 32.9-148.9 48.1s-98.7 31.7-114.1 36.7c-15.5 5-28.9 8.8-29.8 8.5-1.4-.5-1.6-2.7-1.6-14.6v-14l5.4-2c9.9-3.7 85.8-28.8 124.1-41.1 20.9-6.7 60.5-19.5 88-28.5s65.8-21.3 85-27.4c19.3-6.1 39.7-12.6 45.5-14.5l10.4-3.4 2.6 3.6c1.5 2.1 14.7 21.2 29.5 42.7m-27.5 4.1c3.1 4.3 21.8 31.1 41.7 59.4 19.8 28.3 49 69.9 64.8 92.5 15.9 22.5 35.4 50.4 43.5 62 8 11.5 18.9 27.1 24.1 34.5s16.9 24.1 25.9 37 22.3 31.8 29.5 42 21.8 30.9 32.5 46c40.9 58.2 51.3 72.6 54.6 76l3.4 3.6-.2 132.6-.3 132.7-29-17.1c-15.9-9.4-46.1-27.1-67-39.3s-52.8-30.9-71-41.5c-18.1-10.6-49.6-29.1-70-41-64.8-38-134.8-79.1-141.2-83.1l-6.3-3.8v3.2c.1 3.1.7 3.6 18.8 14.1 10.3 6 32.4 19 49.2 28.9 16.8 10 37.9 22.4 47 27.7s35 20.4 57.5 33.7c47.4 27.8 194.5 113.9 205.3 120.2l7.2 4.2v19.9c0 11-.2 20-.4 20-.3 0-30.8-17.9-67.8-39.9-61.2-36.2-113.2-66.9-239.3-141.4-66-39-75.7-44.8-78.8-47.4-3.5-2.8-4.3-2.4-5.7 2.7-.7 2.7-2.1 4.5-4.5 6-2 1.2-3.5 3-3.5 4.1 0 2.5-4.3 5.2-8.8 5.6-5.1.4-17.6 8.1-18 11.1-.5 3.7-10.2 8.5-10.2 5.1 0-.6-1.6-.8-4.4-.4-4.3.7-4.5.6-4.8-2.1-.4-3.9-4.2-4.1-4.6-.3-.3 2.5-.5 2.6-7.5 2.4-7.9-.1-13.7-2.5-13.7-5.7 0-2.5-18.2-13-21.2-12.3-2.7.7-11.8-4.7-11.8-6.9s-18-12.5-21.7-12.4c-4 .1-9.6-3.1-10.3-5.9-.6-2.8-17.8-13.3-21.6-13.3-3.9 0-11.3-4.6-12-7.5-.3-1.3-1.8-2.8-3.5-3.6-3.7-1.5-5.9-4.5-5.9-8 0-1.7-.9-3.2-2.5-4.3-3.3-2.2-3.6-9.3-.5-12.1 1.8-1.6 2-3.1 2-12.7 0-10.1-.2-11-2-11.5-1.7-.5-2-1.4-2-5.8 0-4.5.3-5.5 2-6 1.8-.6 2-1.5 2-11.4 0-11.1-1-14-4.2-12.8-.7.2-7-2.5-14-6L407 1184v-42.1l6.3 3.6c11.6 6.8 14.6 8 15.9 6.7 1.7-1.7-.3-3.6-10.6-9.2-5-2.8-10-5.8-11.1-6.6-2-1.5-2-2.6-2-137.7V862.5l17.5-5.7c9.6-3.1 46.3-15 81.5-26.3 68.9-22.2 142.6-46 170-54.9 9.4-3 17.4-5.4 18-5.2.5.1 3.5 3.8 6.5 8.2m1013.3 27.9c-.4 2.8-2.3 4.1-18.7 14-119 71.6-418.8 251.2-569.1 341-49.5 29.5-91.5 54.6-93.2 55.7l-3.3 2v-22.9l10.8-6.3c5.9-3.5 49-29.3 95.7-57.3 46.8-28 111.5-66.7 143.8-86 32.4-19.4 143.1-85.7 246-147.4L1711.5 787l.6 8.3c.3 4.5.4 9.6.2 11.2M1642 994.4c0 78.3-.4 132.5-.9 133.9-.5 1.3-2.4 3.3-4.3 4.4-1.8 1.1-47.2 28.3-100.8 60.3-53.6 32.1-104.4 62.5-112.9 67.7-8.5 5.1-15.7 9.1-15.9 8.8-.3-.3-.5-40.9-.5-90.3.1-49.3-.2-95.6-.5-102.7-.6-12-.9-13-2.7-13.2-1.6-.2-76.1 43.2-111.8 65.1l-5.9 3.6.3 28.8c.1 15.8.2 63 .1 104.8l-.2 76.1-89.7 53.9c-49.4 29.7-106.9 64.2-127.8 76.8s-38.6 23.1-39.2 23.3c-1 .4-1.3-26.6-1.3-132.8v-133.4l4.3-2.6c6-3.8 115.9-69.5 395.2-236.4 44-26.4 109.7-65.7 146-87.6 36.3-21.8 66.6-39.7 67.3-39.8.9-.1 1.2 26.8 1.2 131.3m-243.2 203.8-.3 122.3-10.5 6.5c-13.3 8.4-91.7 55-92.5 55-.3 0-.5-55.2-.5-122.8v-122.7l5.8-3.5c42.4-25.5 96-57 97-57s1.2 24.7 1 122.2m242.2-41.7v19.5l-3.7 2.6c-2.1 1.4-23.6 14.3-47.8 28.6-65.6 38.9-104 61.7-143.8 85.5-19.6 11.7-36.4 21.6-37.2 21.9-1.3.5-1.5-2.1-1.5-19.3v-19.9l7.8-4.4c10-5.6 85.5-50.3 99.7-59 6.1-3.7 27.4-16.5 47.5-28.5 51.8-30.9 72.2-43.2 74.5-44.9 4.3-3.3 4.5-2.7 4.5 17.9m-354.2 201.6c.1 5.2-.1 14.1-.5 19.8l-.8 10.5-30.5 18.4c-16.8 10.1-71.4 43-121.5 73.1-50 30.1-94 56.6-97.8 58.9-3.7 2.3-7 4.2-7.2 4.2-.3 0-.5-9.1-.5-20.3v-20.2l18.8-11.1c25.5-15.1 228.7-137.4 233.7-140.7 2.2-1.4 4.5-2.5 5-2.3.6.1 1.1 4.5 1.3 9.7"/><path d="M1373.3 397.8c-4.5 2.8-4.9 3.7-3.3 6.2.8 1.3 1.4 1.3 4.2-.3l3.3-1.9 2.2 2.8c1.8 2.3 2.4 2.6 3.7 1.5.9-.8 1.6-1.7 1.6-2.2 0-1.8-5-8.9-6.3-8.9-.6 0-3.1 1.3-5.4 2.8m-24.5 15c-8 4.8-8.9 6-6.3 8.2 1.1.9 2.9.2 9.5-3.7 8.1-4.8 9-5.9 6.8-8.1-1.6-1.6-1.3-1.7-10 3.6m41.4 4.5c-.8 1 .2 3.1 3.9 8.5 5 7.1 7.4 8.7 8.6 5.7.7-1.9-8.1-15.5-10.1-15.5-.7 0-1.8.6-2.4 1.3m-68.7 11.9c-7 4.3-8.3 6.1-6.6 8.7 1.4 2.1 17.3-7.7 16.9-10.4-.5-3.2-2.9-2.8-10.3 1.7m-27.7 16.6c-7.5 4.5-9.1 6.5-6.7 8.9.8.8 3.3-.2 9.1-3.5 8.4-4.8 9.8-6.3 7.8-8.7-1.6-1.9-1.2-2.1-10.2 3.3m114.5-3.1c-2.1.8-1.6 2.3 3.5 10 4.6 7.2 7.6 9.1 8.8 5.8.7-1.7-8.5-16.5-10.1-16.4-.5 0-1.6.3-2.2.6M1266 462.6c-9.9 6.1-10.4 6.5-8.7 8.8 1.3 1.7 1.5 1.8 4.6.1 9-4.6 14.2-8.7 13.9-10.7-.2-1.2-.7-2.3-1.3-2.4-.5-.2-4.4 1.7-8.5 4.2m160 6.9c-.7.8-1 2-.7 2.7 1 2.5 10.8 15.8 11.6 15.8.5 0 1.4-.7 2.1-1.5 1.1-1.3.3-2.9-4.4-10-3.1-4.7-6-8.5-6.5-8.5s-1.4.7-2.1 1.5m-190.1 11.3c-7.8 4.8-9.4 6.1-9.4 8.2 0 2.6.5 2.7 6 1.5 3.1-.7 3.1-.6 22.2 27.7 10.5 15.6 25.5 37.6 33.2 49.1 7.8 11.4 14.1 21.6 14.1 22.6 0 1.1-1.5 2.8-3.5 4.1-4 2.5-4.2 3.1-1.6 5.4 1.8 1.6 2.3 1.4 11-4.1 7.1-4.5 9.1-6.3 8.9-7.8-.3-2-2.7-2.5-5.8-1.1-2 .8-3-.6-40.1-55.5-31.1-46-31-45.7-25.4-49.3 2.8-1.8 3.2-3.8 1.2-5.5-1-.8-3.6.3-10.8 4.7m-28.5 17.3c-9.3 5.6-9.8 6-8 8.4 1.3 1.8 1.6 1.7 8.2-2.3 10-6 9.7-5.7 8.9-8.1-.3-1.1-1-2.1-1.4-2.1s-3.8 1.9-7.7 4.1m236.6-.6c-1 1.2-.9 2 .5 4.2 1.7 2.6 1.7 2.7-1.4 5.2-2.9 2.4-3 2.8-1.8 4.5 1.4 1.9 1.6 1.8 7.1-1.3 3.1-1.8 5.6-3.5 5.6-3.8 0-.4-1.4-2.8-3.1-5.5-3.3-5-4.8-5.8-6.9-3.3m-266.2 18.3c-7.9 4.8-8.5 5.5-6.8 8.2.8 1.3 1.7 1.1 6.2-1.3 11.4-6.3 12.9-7.6 11.8-9.7-.6-1.1-1.6-2-2.3-2-.7.1-4.7 2.2-8.9 4.8m241.5 5.5c-7.2 4.1-9.2 7-5.8 8.3 2.3.9 16-7.7 16-10.1 0-3.2-2.5-2.8-10.2 1.8m40.1 1.6c-4.3 2.6-5 4-3 5.9 1.3 1.4 2 1.4 3.6.4s2.3-.8 4.5 1.4c4.9 4.9 7.3.6 3.1-5.7-3-4.4-3.9-4.7-8.2-2m-308 8.9c-8.9 5.4-9.5 6.1-8.3 8.3.5 1 1.4 1.9 1.8 1.9.5 0 4.3-2.1 8.5-4.7 6-3.7 7.6-5.1 7.4-6.7-.5-3.2-2.7-2.9-9.4 1.2m239.4 6c-7.7 4.7-9.2 6.8-6.4 9.1 1.2 1 3.1.2 9.8-4 4.6-2.8 8.5-5.3 8.6-5.5 1-.8-1.2-4.4-2.6-4.4-.9 0-5.2 2.2-9.4 4.8m45.3-.9c-3.5 2.2-7.1 4.7-8 5.5-1.4 1.5-1.4 1.8.1 3.2 1.5 1.6 2.2 1.3 9.5-3.3 5.1-3.3 7.8-5.7 7.8-6.9 0-3.1-2.6-2.6-9.4 1.5m38.6 5.5c-.6 1.5 8.6 16.6 10.1 16.6.4 0 1.6-.6 2.5-1.3 1.6-1.1 1.3-1.9-3.3-9-5-7.6-8.1-9.6-9.3-6.3m-351.4 6.5c-8 4.8-10.3 6.9-9.6 8.7.8 2.1 2.6 1.7 9.5-2.2 8.8-5.1 10-6.2 8.7-8.5-.5-1.1-1.3-1.9-1.7-1.9-.4.1-3.5 1.8-6.9 3.9m284.8 5.1c-8.6 5.2-9.5 6.1-7.8 8.4 1.2 1.6 1.8 1.4 9.5-3.1 6.5-3.7 8.2-5.2 8-6.8-.5-3-2.7-2.7-9.7 1.5m-46.3 2.2c-8.8 5.2-9.8 6.4-7.7 8.5 1.3 1.3 5.5-.5 14.7-6.3 4.6-3 5.1-3.7 4.2-5.4-.6-1.1-1.4-2-1.8-2s-4.6 2.4-9.4 5.2m-262.2 7.4c-1.6.7-6.2 3.5-10.3 6-8.9 5.6-9.5 8-2 7.8l4.8-.1 16.3 24.1c32 47.3 44.8 66.8 47.1 71.9l2.4 5.1-3.5 2.4c-3.6 2.4-3.9 3.8-1.3 5.5 1.2.7 3.9-.4 10.7-4.4 8.1-4.7 9.2-5.7 9-7.9-.3-2.5-1.5-2.9-6.2-1.9-2.3.5-2.6.2-39.5-54.4-15.5-23-28-42.4-27.8-43.1.3-.8.1-1.8-.5-2.4s.1-1.7 2.1-3.1c2.9-2.1 4.1-5.4 2.3-6.5-.5-.3-2.1.2-3.6 1m279.1 8.5c-8.6 5-10 6.6-7.4 8.7 1 .8 3.1 0 8.6-3.2 9.6-5.8 11-7.1 9-9.1-1.3-1.3-2.4-.9-10.2 3.6m-43.9.2c-9 5.7-9.6 6.3-7.6 8.3 1.5 1.5 2.3 1.3 9.7-3.1 8-4.7 10.1-7.5 6.5-8.9-.9-.3-1.6-.6-1.7-.5-.1 0-3.2 1.9-6.9 4.2m158.2-2.8c-1.1 1.3-.7 2.3 2 6.3 5.6 8 7 9.3 9.1 8.1 1.1-.5 1.9-1.4 1.9-1.9 0-1.7-9.2-14-10.5-14-.7 0-1.8.7-2.5 1.5m-429.9 15c-8.2 4.9-9.5 6.3-7.9 8.2 1.5 1.9 2.3 1.7 9.8-2.8 8.4-5 9.7-6.3 8-8.4-.7-.8-1.5-1.5-1.9-1.4-.3 0-3.9 2-8 4.4m287.2 4.4c-5.4 3.3-7.8 5.3-7.8 6.6 0 1.1.8 2.1 1.8 2.3 2.6.5 16.7-8.5 16.7-10.8 0-3.4-2.8-2.9-10.7 1.9m160.7 6.7c-1.1 1.3-.6 2.6 3.7 8.7 5 7.3 6.8 8.4 8.6 5.6.7-1.2-.2-3.3-3.8-8.7-4.9-7.4-6.3-8.3-8.5-5.6m-477 6.2c-7.5 4.8-8.8 6.6-6 8.5 2.4 1.5 17.2-7.9 16.8-10.7-.5-3.3-2.8-2.8-10.8 2.2m285.8 4.8c-4.9 3.1-8.8 5.9-8.8 6.3s.8 1.5 1.8 2.4c1.4 1.3 2.1 1.3 4.1.2 2.2-1.1 2.6-1 4.6 1.4s56.9 83.7 62.5 92.6c3 4.6 2.8 6.7-.6 8.9-2.7 1.9-3.1 3.8-1 5.6 1.2.9 3.1.1 10.1-4.1 9.6-5.9 10.8-7 9.9-9.3-.7-1.8-2.7-2.1-5.5-.6-1.5.9-2.4.5-4.9-2.2-2.8-3.1-59.6-86.6-63.5-93.5l-1.9-3.3 2.8-2.9c2.9-3 3.2-6.4.6-6.8-.8-.2-5.4 2.2-10.2 5.3m-44.5 1.7c-7.2 4.2-9.2 7-5.8 8.4 2.4.9 15.9-7.7 16.3-10.5.5-3.3-2.2-2.8-10.5 2.1m-269.9 10.4c-7.9 4.8-9.3 6.7-6.3 8.6 1.2.7 3.3 0 8.7-3.2 8-4.8 9.7-6.4 8.8-8.6-.9-2.4-2.7-1.8-11.2 3.2m285.6 5.8c-4.1 2.4-7.5 4.9-7.4 5.5.3 2.6.5 3 2.2 3 3.2-.1 15.7-8.5 16-10.8.5-3.4-2.3-2.8-10.8 2.3m237.3-2.9c-.3.9.2 3 1.1 4.6 1.7 2.8 1.7 3-.1 4.3-1 .8-2.2 1.5-2.6 1.5-1.6 0-.2 4.5 1.5 4.8 2.5.5 9.8-4.5 9.8-6.7 0-2.5-5.7-10.1-7.5-10.1-.9 0-1.8.7-2.2 1.6m-281.8 3.7c-4.7 2.9-7.1 5.1-7.3 6.5-.5 3.5 2.8 2.8 11.3-2.4 5.2-3.2 7.5-5.1 7.3-6.3-.6-2.9-4.1-2.2-11.3 2.2M977 635.9c-7.5 4.8-8.8 6.6-6 8.4 1.2.7 3.5-.3 9.3-3.8 8.5-5.1 9-5.6 8.1-7.9-1-2.5-3.3-1.8-11.4 3.3m242.5 6c-4.4 2.6-8.1 5.5-8.3 6.4-.7 3.5 2.9 2.8 10.8-1.8 6.4-3.8 8-5.2 7.8-6.8-.2-1.1-.7-2.2-1.3-2.3-.5-.2-4.6 1.8-9 4.5m43.3-.3c-5.5 3.2-7.8 5.2-7.8 6.5 0 3.6 2.9 3.1 10.7-1.6 9.4-5.7 8.6-4.9 7.8-7.4-.9-2.9-1.9-2.6-10.7 2.5m241.7 4c-5.1 3.2-7 5-7 6.6 0 1.2.5 2.3 1 2.5.6.2 4.7-1.8 9-4.4 5.7-3.4 8-5.4 8-6.8 0-3.4-3.6-2.7-11 2.1m39.3 2.1c-2.1 1.4-3.8 3.2-3.8 4 0 1.9 2.9 2.8 5.1 1.5 1.5-.9 2.2-.6 4.3 1.8 2.8 3.4 3.8 3.7 5.6 1.5 1.1-1.3.7-2.4-2.1-6.5-1.9-2.8-3.8-5-4.4-4.9-.5 0-2.7 1.2-4.7 2.6M947.6 654c-10.5 6.5-11 7-9.1 9.7 1.4 1.9 1.9 2.1 4.7 1.1 2.7-1 3.3-.8 4.9 1.3 6.3 8.3 64.9 96 64.9 97.2 0 .9-1.2 2.5-2.6 3.6-2.8 2.2-2.9 5.4-.3 5.9.9.2 5.5-2.1 10.3-4.9 7-4.2 8.6-5.6 8.4-7.3-.3-2.4-4.3-3.5-6.1-1.7-2.3 2.3.6 6.1-39.4-52.9-13.2-19.5-25.5-37.9-27.1-40.7l-3.1-5.3 3.4-3.7c2-2.1 3.4-4.5 3.3-5.3-.6-2.8-4.3-1.9-12.2 3m286.9 4.8c-5.6 3.4-8 5.4-8 6.7 0 3.2 2.6 2.8 10-1.6 8.7-5.1 9.7-6.1 8.9-8.2-.9-2.5-2.1-2.2-10.9 3.1m-43.6.2c-7.2 4.3-9.4 6.4-8.4 8 1.2 1.9 4.4 1 11.2-3.1 7.6-4.7 8.7-5.8 7.1-7.6-1.6-1.9-2.6-1.6-9.9 2.7m286.4 2.8c-8.4 4.8-9.7 6.1-8.7 8.7.9 2.3 1.9 1.9 11-3.6 8.3-5 9.6-6.6 7.1-8.7-.9-.8-3.4.2-9.4 3.6m43.5-.3c-8.8 5.1-9.6 6.1-7.5 8.2 1.4 1.4 2.4 1.1 9.7-3.2 6.4-3.8 8-5.2 7.8-6.8-.2-1.1-.7-2.2-1.3-2.4-.5-.1-4.5 1.8-8.7 4.2m39.5 5.2c-2.1.8-1.6 2.2 3.4 9.5 4.7 6.9 6.6 7.9 8.6 4.6.9-1.3.1-3-3.9-8.2-4.8-6.4-5.6-7-8.1-5.9m-642.9 5.1c-5.5 3.4-7.9 5.4-7.9 6.7 0 3.3 3 2.8 10.9-2 7.5-4.6 8.8-6.3 6.3-8.3-1-.9-3.3.1-9.3 3.6m287.9 3.9c-7.1 4.5-9.1 7.4-5.9 8.6 2.2.9 17.6-9.1 17.6-11.4 0-3.1-3.8-2.2-11.7 2.8m243.8 2.7c-8.7 5.2-9.3 5.8-8.5 7.9.9 2.5 2.1 2.1 10.7-2.9 7.6-4.4 8.9-6.1 6.4-8.2-1-.8-3.1 0-8.6 3.2m42.9.2c-4.1 2.6-7.7 4.8-7.8 4.9-.7.7 1 4.5 1.9 4.5 1.3 0 14.7-8 15.9-9.5s.3-4.5-1.4-4.5c-.6 0-4.5 2.1-8.6 4.6m-601.6 10.1c-9.8 5.7-10 5.8-8.4 7.8 1.9 2.3 3.2 1.9 11.5-3.1 7.5-4.5 8.7-6.2 6.2-8.2-1-.9-3.3 0-9.3 3.5m286.9 3.8c-5.9 3.6-8.9 6-9.1 7.4-.4 2.6 1.9 3.6 4.8 2.1 1.6-.9 2.5-.8 3.7.2.9.7 15.9 22.8 33.4 49 33.8 50.6 34 51.1 28.7 53.9-2.6 1.4-2.1 5.4.7 5.4 1.1 0 5.9-2.2 10.8-4.9 6.9-4 8.7-5.4 8.7-7.2 0-3.2-1.5-3.7-5-1.9-1.7.9-3.5 1.3-4.1.9-.5-.3-9.9-13.9-20.9-30.2-10.9-16.4-24.6-36.7-30.5-45.2-11.8-17.2-13.5-20.1-14.1-24-.4-2.1.1-2.9 2.1-3.8 2.8-1.3 3.5-5.6 1.1-6.5-.8-.3-5.4 1.8-10.3 4.8m-47 2.6c-4.6 2.8-8.3 5.4-8.3 5.9s.7 1.5 1.5 2.3c1.3 1.4 2.5.9 10.5-3.5 7.5-4.2 9-5.5 8.8-7.2-.5-3.5-3.9-2.8-12.5 2.5m290.3 1c-4.4 2.7-8.4 5.3-8.8 5.7-1.3 1.3.2 4.2 2.1 4.2 2.4 0 17.1-9.9 17.1-11.4 0-3.7-2.6-3.4-10.4 1.5m43.2-.5c-5.2 3.1-7.8 5.2-7.8 6.4 0 3.5 2.1 3.2 10.6-1.7 6.6-3.8 8.4-5.2 8.2-6.8-.5-3.2-2.8-2.8-11 2.1m114.9-3.5c-2.5 1.4-2.2 2.3 3.1 10 5.2 7.6 6.4 8.5 8.7 6.3 1.3-1.4 1-2.3-3.5-8.9-5.7-8.5-5.9-8.7-8.3-7.4m-718.2 14.3c-4.5 2.8-7.1 5.1-7.3 6.5-.6 3.8 2.5 3.4 10.7-1.6 6.2-3.7 8-5.3 7.8-6.8-.4-3.3-3.8-2.7-11.2 1.9m287.7 4c-8.8 5.2-9.4 5.8-8.6 7.9.9 2.5 2.5 2.1 10.8-3 5.9-3.6 7.6-5.1 7.4-6.7-.2-1-.7-2.1-1.3-2.3-.5-.1-4.3 1.7-8.3 4.1m-45.2 1.3c-8.2 5.1-9.1 6-8.3 8 .9 2.3 4.3 1.4 11.3-3.1 7.5-4.9 8.3-5.7 7.4-8-.9-2.4-2.2-2-10.4 3.1m331.8 1.1c-7.6 4.6-9.7 7.5-6.4 8.8 1.5.6 15.2-6.9 17.3-9.4 1.5-1.8.6-4.2-1.6-4.2-.9.1-5.1 2.2-9.3 4.8m161.2 6.7c-1 1.2-.3 2.9 4.1 9.4 3 4.4 5.9 8 6.5 8.1.6 0 1.7-.7 2.4-1.5 1-1.2.4-2.9-4-9.5-5.3-8.1-6.8-9.2-9-6.5m-763.5 4.3c-5.6 3.4-8 5.4-8 6.7 0 3.4 3.4 2.8 11-2 6-3.7 7.5-5.1 7.5-7.1 0-1.3-.6-2.4-1.2-2.4-.7 0-4.9 2.2-9.3 4.8m286.5 4.1c-7.6 4.8-9.6 7.6-6.5 8.8 1.7.6 3.8-.4 13.3-6.4 4.6-2.9 5.1-3.6 4.2-5.3-.6-1.1-1.6-2-2.3-1.9-.7 0-4.6 2.2-8.7 4.8m-43.8.5c-8.9 5.2-9.4 5.8-8.6 8 .9 2.5 4 1.5 12.5-4 4.9-3.1 6.9-5 6.7-6.2-.6-2.9-3-2.4-10.6 2.2m331.8 1.5c-9.3 5.3-11.1 7.1-9.1 9.5 1 1.2 1.7 1.3 3.8.3 2.3-1 2.8-.9 4.2 1.3.9 1.3 9 13.2 18 26.5 32.8 48 46.4 68.9 46.7 71.3.2 1.7-.5 3.2-2.2 4.4-2.7 2.2-3.1 4-1.1 5.7 1 .8 3.3-.2 9.7-4.2 9.6-6 11.2-7.9 8.9-10.3-1.5-1.4-1.9-1.4-4.6 0l-3 1.5-20.4-30.2c-11.1-16.6-26-38.6-33.1-48.9-7-10.3-12.8-19.6-12.8-20.8 0-1.3 1.2-2.7 3-3.8 3.2-1.8 3.9-4.2 1.7-6-1-.8-3.4.1-9.7 3.7m-46.2 1.9c-5.1 3-7.8 5.3-7.8 6.5 0 3.3 2.8 2.9 9.9-1.3 8.5-5.1 9.8-6.4 8.1-8.5-.7-.8-1.5-1.5-1.9-1.5-.3.1-4.1 2.2-8.3 4.8m-553.3 7c-1.6 1.1-3.8 2.8-4.8 4-1.8 1.9-1.8 2.2-.2 5.6 2.1 4.4 4 6 6.1 5.2 1.1-.4 1.4-1.3 1-2.6-.3-1.1-.8-2.8-1.2-3.8-.3-1.2.4-2.3 2.6-3.5 2.2-1.3 3-2.5 2.8-4-.4-2.9-2.6-3.2-6.3-.9m284 5.9c-4.4 2.7-8.1 5.6-8.3 6.6-.7 3.5 2.8 2.9 10.8-1.8 6.4-3.8 8-5.2 7.8-6.8-.2-1.1-.8-2.2-1.3-2.4-.6-.2-4.7 1.8-9 4.4m-44.2 1.1c-6.4 3.7-8.2 5.2-8.3 6.9 0 1.5.6 2.3 1.7 2.3 1.9 0 17.3-8.8 17.3-9.9 0-.4-.6-1.5-1.2-2.4-1.2-1.5-2.1-1.2-9.5 3.1m330 2c-7.6 4.6-10 7.6-6.9 8.8 2.3.9 17.6-8.3 17.6-10.6 0-3.4-2.9-2.9-10.7 1.8m-44.3 1c-4.1 2.6-7.6 5.5-7.8 6.5-.7 3.4 2.8 2.8 10.8-2 6.2-3.7 8-5.2 7.8-6.8-.5-3.2-2.8-2.7-10.8 2.3m280.5-2.7c-.4.5-.1 2.4.6 4.1 1 2.5 1 3.2-.2 3.9-3.8 2.3-4.1 2.7-3.4 4.8.3 1.1 1.2 2.1 1.9 2.1 2.4 0 10.6-5.2 10.6-6.7 0-.8-1.2-3.2-2.7-5.4-2.7-3.8-5.5-5-6.8-2.8m-550.3 15.3c-8.8 5.2-9.4 5.8-8.6 7.9 1 2.6 3 2.1 11-2.9 8.3-5.1 8.7-5.5 7.8-7.8-.9-2.4-2.2-2-10.2 2.8m241.1 4.2c-7.2 4.5-9.3 7.7-5.9 9 2.2.9 17.1-8.8 17.1-11.1 0-3.3-3.6-2.7-11.2 2.1m43.5.2c-8 4.8-8.9 6-6.3 8.2 2.2 1.8 17.5-7.6 17.5-10.7 0-3.4-2.5-2.9-11.2 2.5m-533.5-2.1c-2 .8-1.6 2.1 3.4 9.9 3.6 5.7 5.2 7.4 7 7.4 3.6 0 2.8-3.6-2.5-10.9-4.8-6.6-5.7-7.3-7.9-6.4m775.2 5.8c-7.1 4.4-9.1 7.7-5 8.2 3 .4 16-8 16-10.3 0-3.2-3.6-2.5-11 2.1m-556.4 9.5c-11.2 6.5-12 7.3-9.6 10 1.7 1.8 2 1.9 4.1.5 1.3-.8 2.8-1.5 3.4-1.5s2.7 2.6 4.7 5.7c3.7 5.9 36.6 54.5 52.3 77.4 4.8 6.9 9 14 9.3 15.7.5 2.7.2 3.4-2.3 5.2-3.2 2.3-4 5.7-1.5 6.6 1.8.7 21.5-11.3 21.5-13.1 0-2.7-2.7-3.7-5.9-2.1l-3 1.6-20.9-30.3c-37.2-53.8-45.5-66.2-45.9-68.3-.3-1.2.6-3.3 2.1-5.1 2.9-3.5 3.2-4.6 1.3-6.1-.9-.8-3.5.2-9.6 3.8m-46.3 2.6c-5.5 3.2-7.8 5.2-7.8 6.5 0 3.5 2.7 3.2 9.9-1.1 7.9-4.7 9.6-6.3 8.7-8.5-.8-2.3-2.5-1.8-10.8 3.1m333.7.2c-5.6 3.4-8 5.4-8 6.7 0 3.3 2.6 2.8 10.8-2 6.3-3.7 7.8-5 7.5-6.7-.2-1.2-.7-2.3-1.3-2.5-.5-.1-4.6 1.9-9 4.5m-44.4 1.2c-6.8 4-8.2 5.5-7.4 7.7.9 2.2 3.2 1.5 10.9-3.3 5-3.1 7.4-5.2 7.4-6.5 0-2.9-3.6-2.2-10.9 2.1m285.2 3.6c-7 4.4-9 7.2-6.3 8.9 1 .6 16.4-7.8 17.5-9.5.9-1.4-.7-4-2.4-3.9-.9 0-4.9 2.1-8.8 4.5M832 791.5c-1.1 1.3-.5 2.7 3.8 8.8 4.9 7.1 8.3 9.2 9 5.5.3-1.7-8.5-14.9-10.4-15.5-.6-.2-1.7.3-2.4 1.2m170.5 6.2c-5.7 3.4-8 5.4-8 6.8 0 3.3 2.9 2.8 10.9-2.1 6.1-3.6 7.6-5.1 7.4-6.7-.2-1.1-.8-2.2-1.3-2.4-.6-.2-4.7 1.8-9 4.4m-43.5.7c-5.1 3-7.6 5-7.8 6.5-.6 3.8 2.5 3.4 10.8-1.6 6.2-3.7 8-5.2 7.8-6.8-.5-3.1-2.8-2.7-10.8 1.9m332 .9c-5.3 3-7.5 4.8-7.5 6.2 0 3.4 3.1 2.8 11.5-2.1 5.6-3.2 8-5.1 7.8-6.3-.5-2.8-4.1-2.1-11.8 2.2m242 4.5c-5.2 3.3-7.5 5.4-7.5 6.7 0 3.1 3.1 2.4 11.3-2.4 5.9-3.4 7.3-4.7 7-6.4-.5-3.4-2.7-3-10.8 2.1m-602.5 12c-5.6 3.4-8 5.4-8 6.7 0 3.3 2.8 2.8 11.4-2.2 6.4-3.7 8.1-5.2 7.9-6.8-.5-3.3-2.9-2.8-11.3 2.3m43.3-.5c-9 5.7-9.6 6.3-7.6 8.3 1.5 1.6 2.3 1.3 9.7-3.1 6.6-3.8 8.1-5.1 8.1-7.1 0-3.4-2.3-3-10.2 1.9M1262 817c-9.9 5.8-11.2 7.2-8.7 9.7 1.4 1.5 2.1 1.6 3.7.5 1.1-.6 2.4-1.2 2.8-1.2 1.2 0 9.9 12.4 37.4 53.5 32 47.9 30.7 45.3 26.3 50.1-2.9 3.1-3 3.7-1 5.4 1.2 1 3.2.1 11.1-4.6 9.9-6.1 11.5-7.7 9.5-9.7-.8-.8-2-.8-4.6.2-3.4 1.2-3.7 1.1-5.8-1.5-1.2-1.6-16-23.1-32.9-47.9-32.9-48.5-33.5-49.5-28.1-53 2.7-1.8 2.9-5.8.3-6.2-.8-.2-5.3 2-10 4.7m-46.5 2.5c-3.8 2.4-7 4.8-6.9 5.4.3 2.7.5 3.1 2.1 3.1 3 0 16.3-9 16.3-11.1 0-3.1-3.8-2.2-11.5 2.6m-366.4-2.1c-1.6 1.8 8.5 16.1 11.4 16.1 3.5 0 2.7-3.2-2.5-10.4s-6.8-8.2-8.9-5.7m655.9 3.2c-9.2 5.6-9.2 5.7-8.4 7.7 1 2.6 3.3 2.1 11.6-3 7.7-4.6 9.6-7.4 6.2-8.7-1.9-.7-.7-1.3-9.4 4m-603 12.2c-4.1 2.6-7.6 5.5-7.8 6.5-.7 3.5 2.9 2.9 10.8-1.9 6.2-3.8 8-5.4 7.8-6.9-.5-3.2-2.8-2.7-10.8 2.3m44.1-.9c-8.7 5.4-9.5 6.2-7.8 8.5 1.3 1.8 1.8 1.6 9.6-3 6.3-3.8 8.1-5.3 7.9-6.9-.5-3.1-2.8-2.8-9.7 1.4m243.9 3.2c-8.3 5.3-10 6.8-9.3 8.5.9 2.3 3.4 1.6 10.8-3 5.4-3.3 7-4.8 7-6.6 0-1.3-.4-2.5-1-2.7-.5-.1-3.9 1.6-7.5 3.8m41.7.6c-7.6 4.7-9.7 7.6-6.2 8.9 1.4.6 16.3-7.8 17.7-9.9 1-1.6-.2-3.7-2.1-3.7-.9 0-5.1 2.1-9.4 4.7m-363.6 7.6c-.8 1-.4 2.5 1.8 5.9 1.6 2.5 3.4 4.9 4 5.2 1.4.9 9-3.1 9.8-5 1-2.6-1.3-3.9-4.4-2.5-2.6 1.2-3 1.1-5.4-1.8-2.8-3.4-4.1-3.8-5.8-1.8m48.7 6.7c-4.3 2.7-7.8 5.4-7.8 5.9s.7 1.4 1.5 2.1c1.3 1.1 2.9.4 9.8-3.8 5.4-3.3 8.2-5.7 8.2-6.9q0-4.95-11.7 2.7m288.2 2.1c-9 5.5-9.9 6.5-7.8 8.5 1.4 1.5 2.2 1.2 9.7-3.1 8.9-5.1 9.4-5.6 8.5-7.9-.9-2.4-3.3-1.9-10.4 2.5m-45.2 1.5c-5.4 3.2-7.8 5.2-7.8 6.5 0 3.1 3.8 2.3 11.5-2.5 4.7-2.9 7-4.9 7-6.2 0-3.1-2.6-2.6-10.7 2.2m286.8 3.2c-8.4 5.1-9.1 5.8-7.6 8.2.8 1.3 2.1.9 8.5-2.4 9.1-4.8 11.3-6.9 9.5-9.1-.7-.8-1.5-1.5-1.9-1.5-.3.1-4.2 2.2-8.5 4.8m-556.1 8c-2.2 1.5-4.1 3.5-4.3 4.5-.4 2.2 4.6 10.7 6.4 10.7 2.2 0 2.8-2.7 1.3-6.2-1.2-2.9-1.1-3.2 2.1-5.8 2.3-1.8 3.1-3.2 2.7-4.4-.9-2.3-3.6-1.9-8.2 1.2m286.7 3.6c-4.1 2.4-8.1 5.1-9 6-1.5 1.5-1.5 1.7 0 3.3 1.6 1.5 2.3 1.3 10-3.5 6.4-3.9 8.3-5.6 8.3-7.3 0-1.2-.4-2.4-1-2.6-.5-.1-4.3 1.7-8.3 4.1m-46.4 2.2c-7.8 4.6-9 6.2-6.4 8.3 1.1.9 2.8.3 8.3-3 8.6-5.2 10.3-6.7 9.6-8.5-.9-2.3-3.4-1.6-11.5 3.2m286.9 3c-6.1 3.7-7.7 5.1-7.5 6.7.2 1.1.8 2.2 1.3 2.4.6.2 4.7-1.8 9-4.4 5.7-3.4 8-5.4 8-6.8 0-3.3-2.6-2.7-10.8 2.1m-270.9 13c-5.5 3.2-7.8 5.2-7.8 6.5 0 3.6 2.8 3.1 10.9-1.8 6.2-3.7 8-5.3 8.1-7.1 0-3.3-2.5-2.8-11.2 2.4m242.6 4c-8.2 4.7-9.5 5.9-8.7 8.1s3.4 1.5 11.3-3c5.1-2.9 7.6-4.9 7.8-6.3.5-3.7-2.4-3.4-10.4 1.2m-490-1.1c-.6 1.5 4.1 9.9 7.9 14.2 2 2.3 4.7 2.1 4.7-.4 0-.9-1.9-4.6-4.2-8.4-4.2-6.7-7.2-8.6-8.4-5.4m218.2 14.3c-8.9 5.3-10.7 7.2-8.7 9.6 1.1 1.4 1.6 1.4 4.1.1s2.8-1.2 4.7 1.3c4.7 6.5 63.4 94.2 63.9 95.6.4 1-.5 3.1-2.1 5.2-2.8 3.6-2.8 6.4.1 6.4.9 0 4.9-2.1 8.9-4.8 3.9-2.6 8-5.2 9-5.7 1.5-.9 1.6-1.4.6-3.4-1.3-2.3-3-2.4-7.2-.7-2.2.9-3.1-.3-32-43.2-38.2-56.7-37.1-54.7-32.4-57.8 1.3-.8 2.6-2.2 2.9-2.9.5-1.4-1.8-4.5-3.2-4.5-.4.1-4.3 2.2-8.6 4.8m-45.8 2.5c-9 5.7-9.6 6.3-7.6 8.3 1.4 1.5 2.3 1.2 9.9-3.3 5.9-3.5 8.4-5.5 8.4-6.9 0-3.2-3.6-2.6-10.7 1.9m289 1.3c-5.4 3.2-7.8 5.2-7.8 6.5 0 3.6 2.8 3.1 11-1.8 6.2-3.7 8-5.2 7.8-6.8-.5-3.2-2.8-2.8-11 2.1m-443.1 7.1c-1.5 1.4-.5 4.1 4 10.5 2.9 4.3 5.3 6.8 6.5 6.8 3.6 0 3-2.9-1.8-9.7-5.7-8.1-7.1-9.3-8.7-7.6m169.9 7.6c-7.8 4.8-9.7 7-7.8 8.9 1 1 2.3.7 6.5-1.6 10.4-5.8 12.8-7.7 12.5-9.4-.5-2.9-4-2.2-11.2 2.1m-45.1 1.1c-4.7 2.9-7 4.9-7 6.2 0 3.2 2.6 2.6 10.8-2.1 5.5-3.2 7.7-5.1 7.7-6.5 0-3.2-3.7-2.4-11.5 2.4m-27.1 16.4c-5.6 3.4-8 5.3-8.2 6.9-.5 3.6 2.6 2.9 11.2-2.4 7.6-4.6 8.7-6.1 6.3-8.1-1-.8-3.3.1-9.3 3.6m43.6-.2c-8.3 5.1-9.4 6.2-7.8 8.2 1.4 1.6 1.8 1.5 10.5-3.3 7.6-4.2 9.1-5.9 7.2-8.1-1.6-1.9-1.6-1.9-9.9 3.2m243 3.2c-6 3.4-8.5 5.5-8.5 6.8 0 3.2 3.1 2.7 10.4-1.6 8.6-5.1 10-6.6 8-8.6-1.3-1.2-2.5-.8-9.9 3.4m-367-.3c0 1.8 6.5 12.8 8.5 14.5 1.7 1.4 4.5.2 4.5-1.9-.1-2.8-8.4-13.6-10.8-13.9-1.5-.2-2.2.2-2.2 1.3m51.4 14.2c-5.6 3.4-7.9 5.4-7.9 6.8 0 3.2 2.7 2.8 10.4-1.7 7.8-4.5 9.2-6.1 6.9-8.4-1.2-1.2-2.4-.8-9.4 3.3m44.5-.7c-8.4 5-9.8 6.6-7.7 8.7 1.5 1.4 2.4 1.1 9.7-3.3 6.3-3.8 8.1-5.3 7.9-6.9-.5-3.1-2.8-2.8-9.9 1.5m242.9 3.5c-4.2 2.5-7.9 4.9-8.2 5.4-.9 1.4.4 4.1 2 4.1 1 0 14.1-7.7 16.2-9.5.6-.5-.9-4.5-1.6-4.5-.4 0-4.2 2-8.4 4.5m-321.5 8.1c-.6 1.7.7 4.7 4.2 9l2.4 2.9 4.8-2.7c4.8-2.6 6.4-5.1 4.5-7-.6-.6-2.1-.4-4.3.7l-3.3 1.7-2.5-3.1c-2.8-3.4-4.8-4-5.8-1.5m49.9 5.8c-8.8 5.2-9.4 5.8-8.6 7.9 1 2.7 3.4 2 11.7-3.3 5.5-3.6 7.7-5.6 7.5-6.8-.6-2.9-3-2.4-10.6 2.2m243.1 3.5c-8.1 4.9-9.3 6-8.6 7.7.9 2.4 4.5 1.5 11.8-3 4.7-2.9 7-4.9 7-6.2 0-3.1-3.5-2.6-10.2 1.5m-269.7 12.4c-6 3.4-6.4 4.7-3.2 10.1 3 5.1 5.1 6.5 6.9 4.7.8-.8.6-2-.7-4.8l-1.8-3.7 3.3-2.7c2.2-1.8 3-3.1 2.6-4.3-.8-2.1-2.4-2-7.1.7m241 4.9c-7.7 4.8-9.7 7.1-7.9 8.9 1.9 1.9 18.5-7.9 18.1-10.6-.5-3.2-2.9-2.8-10.2 1.7m-231.9 19.5c-1.5 1.4-.5 4.1 3.9 10.6 3.6 5.4 5 6.8 6.7 6.5 3.4-.5 2.6-3.5-2.8-11.1-4.6-6.3-6.3-7.6-7.8-6m172.1 16.4c-4.3 2.7-7.8 5.4-7.8 5.8 0 .5.7 1.4 1.5 2.1 1.1.9 2.9.2 9.5-3.7 7.9-4.7 9.8-7.4 6.4-8.7-.9-.3-1.6-.6-1.7-.6s-3.7 2.3-7.9 5.1m-154.9 10.1c-.3 2.7.4 4.2 4.4 10.4 4.1 6.3 6.4 7.6 8.5 5.1.9-1-.2-3.1-4.1-8.8-5-7-8.6-9.7-8.8-6.7m126.3 6.9c-5.7 3.5-8.2 5.6-8 6.7.2.9 1.1 1.8 2 2 2 .4 17.8-8.8 17.8-10.3 0-1.2-2-3.5-2.9-3.5-.4 0-4.3 2.3-8.9 5.1m-28.7 17.3c-3.8 2.3-7.1 5-7.3 5.9-.7 3.4 2.9 2.9 10.3-1.4 5.9-3.4 7.5-4.7 7.5-6.6 0-3.3-2.3-2.8-10.5 2.1m-80.2 3.2c-.9 2.3 8.7 15.9 11.2 15.9 3.4 0 2.8-3.1-2.1-10.4-4.7-7.1-7.8-9-9.1-5.5m50.7 14.2c-5.1 3.3-7.5 5.4-7.5 6.7 0 3.3 2.6 2.7 11-2.3 5.6-3.4 8-5.4 8-6.8 0-3.3-3.6-2.5-11.5 2.4m-33.4 11.8c-.7 1.9 1.4 6.2 4.4 8.9 2.1 1.9 2.2 1.9 6.5-.4 4.6-2.4 6.2-4.8 4.5-6.5-.7-.7-2-.7-4.3.2-3 1.2-3.4 1.1-5.2-1.3-2.3-2.8-5-3.3-5.9-.9M652.7 840.7c-.4.3-.7 29.1-.7 63.8 0 49.4.3 63.5 1.3 64.3.6.5 8.2 5 16.7 9.9s27.5 16 42.2 24.6c27 15.8 35.9 20.7 37.7 20.7.5 0 1.7-.7 2.5-1.6 1.4-1.4 1.6-8.3 1.6-61.7 0-45.8-.3-60.8-1.3-62.6-.8-1.6-11.2-8.2-29.7-19-15.7-9.2-36.9-21.7-47.3-27.9-17.4-10.4-21.3-12.2-23-10.5m12.8 14 4.5 2.8.2 49.8.3 49.9 34.5 20.1c19.1 11.1 35.8 21 37.3 22 2.4 1.5 2.7 2.4 2.7 7.2 0 3-.2 5.5-.4 5.5-.3 0-3.1-1.5-6.3-3.4-3.2-1.8-17.3-10-31.3-18.1s-30.3-17.7-36.2-21.2l-10.8-6.4v-55.5c0-30.5.2-55.4.5-55.4.2 0 2.5 1.2 5 2.7m45.7 26.9c16.4 9.7 30.7 18.3 31.8 19.3 2 1.6 2 2.6 1.8 46.3l-.3 44.8-6.5-3.9c-3.6-2.1-18.3-10.7-32.7-19-14.5-8.4-26.5-15.6-26.7-15.9-.7-1.3-1.9-88-1.1-89.2.4-.6 1.4-.9 2.2-.5.9.3 15 8.5 31.5 18.1m-218.9 109c-4.6 2.8-5.2 4.4-2.8 6.4 1.3 1 2.3 1 5.5-.5l4-1.8 4.1 2.7c4.5 3 7.4 3.1 7.4.2 0-1.3-2.1-3.2-6-5.7-3.3-2.1-6.4-3.8-7-3.8-.5 0-2.9 1.1-5.2 2.5m-26 13.9c-4.5 2.5-8.5 5.1-8.9 5.6-.3.6 0 1.8.9 2.6 1.3 1.4 2.5 1 10.6-3.3 7.3-3.9 9.1-5.3 8.9-6.9-.5-3.2-2.8-2.8-11.5 2m56.8.9c-1.8 2.1-1.1 2.8 8.1 8 8.4 4.8 11 5.3 11.6 2.5.2-1.1-2.2-3.1-7.5-6.2-9.9-5.8-10.7-6.1-12.2-4.3m-84.8 14.9-5.2 3.2-.1 6.6c0 5.2.4 6.8 1.6 7.3 2.3.9 3.4-.2 3.4-3.3 0-3.7.8-4.3 3.4-2.6 5.1 3.7 8.9-.1 4.1-4.2l-2.8-2.4 2.2-1.6c2.5-1.7 2.5-5.6.1-6-.8-.2-3.8 1.2-6.7 3m117.2 4.3c-.8.9-1.3 1.9-1 2.3 1.2 2 18.4 11.1 19.9 10.5 3.5-1.3 1.5-4-6.1-8.5-10.3-5.9-11-6.1-12.8-4.3m-96.5 13.9c-.6.8-.9 1.9-.5 2.4 1 1.7 17.6 11.1 19.5 11.1 3 0 3.1-2.8.2-4.8-3.2-2.3-16.9-10.2-17.5-10.2-.3 0-1 .7-1.7 1.5m128.7 4.2c-2.1 2.1-.1 4.3 8.5 9 5 2.8 9.7 4.9 10.5 4.6 3.3-1.3.9-4.1-7.6-9.1-9.1-5.3-10.2-5.7-11.4-4.5m-154 7.9c-1 1.1-.8 22.2.2 22.8.5.4 1.6.3 2.5 0 2.4-.9 1.9-22.7-.4-23.2-.9-.1-1.9 0-2.3.4m59 7.1c-.4.3-.7 1.3-.7 2.2 0 2 18.5 12.5 20.6 11.7 3.1-1.2.7-4.1-7.3-8.7-8.9-5.2-11.6-6.3-12.6-5.2m126 3c-1.5 1.4-.6 4.3 1.9 5.9 1.7 1.2 2.2 2 1.5 2.7-2.9 2.9.3 7.2 3.4 4.7 1.8-1.5 1.7-1.5 2 3.3.2 4.4 1.5 6 3.8 5.1 1.4-.5 1.7-2 1.7-7.9v-7.3l-6.4-3.6c-7-3.9-7-3.9-7.9-2.9M468 1079.5c0 3-.2 5.5-.5 5.5s-2.3-.9-4.5-2c-5.2-2.7-6-2.5-6 .9 0 2.6.7 3.4 5.3 5.8l5.2 2.8.5 7.5c.5 6.8.7 7.5 2.8 7.8s2.2 0 2.2-5.7c0-3.4.3-6.1.8-6.1.4 0 2.5 1.1 4.7 2.5 5.3 3.2 6.2 3.1 5.7-.8-.3-2.6-1.2-3.7-5.5-6.2l-5.2-3.1-.3-6.4c-.3-6.2-1.2-8-3.9-8-.9 0-1.3 1.8-1.3 5.5m58.7-1.8c-.4.3-.7 1.3-.7 2.2 0 2 18.5 12.5 20.6 11.7 3.2-1.2.9-3.8-8-9-9.6-5.7-10.7-6.1-11.9-4.9m71.1 6.6c-4.9 2.8-8.8 5.7-8.8 6.4 0 3 3.6 2.5 11.4-1.7 10.3-5.4 11.4-6.4 9.6-8.4-1.8-2.3-2.6-2.1-12.2 3.7"/><path d="m433 1098.7.1 12.8 26.7 15.4c14.7 8.5 44.5 25.7 66.2 38.2 21.7 12.6 40.2 23.2 41 23.7 1.2.7 1.4 3.4 1.1 15.1l-.3 14.3 2.4-.4c2.3-.3 2.3-.4 2.3-13.8v-13.5l5.5-3.6c7-4.7 48.7-29.3 52.3-31l2.8-1.2-.3-11.6c-.3-11.2-.4-11.6-2.5-11.9-2.2-.3-2.3-.1-2.3 8.5 0 4.8-.4 9.3-.8 9.8-.7 1.1-49.7 30-52.6 31.1-1.4.5-1.6-.5-1.6-6.4 0-6.9-.8-8.5-3.7-7.5-.9.3-1.3 2.7-1.3 7.4 0 3.8-.4 6.9-.9 6.9s-21.7-12-47.2-26.8c-25.5-14.7-54.4-31.2-64.1-36.7l-17.7-10-.3-10.5c-.3-10-.4-10.5-2.5-10.8-2.3-.3-2.3-.2-2.3 12.5m195.7-3c-.5.8-1 15.6-.8 21.5.1 2.7 3.9 2.3 4.6-.5.3-1.2.5-6.5.3-11.7-.3-7.9-.6-9.5-2-9.8-.9-.2-1.9.1-2.1.5m-69.3 2.8c-.8 2 .2 3.3 4.7 5.5 3.5 1.9 3.9 2.4 3.9 6 0 4.2.9 5.4 3.4 4.4 1.1-.4 1.6-1.9 1.6-5 0-3.7.4-4.5 2.8-5.6 3.4-1.7 3.7-5.2.3-5.6-1.3-.2-2.8.1-3.4.7-1.5 1.5-4.8 1.3-7.1-.4-2.5-1.9-5.5-1.9-6.2 0"/><path d="M520.2 1118.6c.3 3.7.5 3.9 12.3 10.6 6.6 3.7 12.3 6.8 12.6 6.8 1.5 0 1.5-5 0-6.3-1.2-1-14.9-9.1-24.4-14.4-.5-.3-.7 1.2-.5 3.3m-86.5 5c-1 1.1-.8 23.2.2 23.8.5.4 1.6.3 2.5 0 2.4-.9 1.9-23.7-.4-24.2-.9-.1-1.9 0-2.3.4m134.3 17.3c0 6.6.4 12.2.9 12.5.5.4 1.6.3 2.5 0 1.4-.5 1.6-2.3 1.4-12.3-.3-11.2-.4-11.6-2.5-11.9-2.3-.3-2.3-.2-2.3 11.7m196.6 1.3c-1.4 2-1.6 11.5-1.6 82.8 0 44.3.3 81.5.6 82.6.4 1.5 4.3 4.2 11.7 8.5 12.9 7.2 83.8 48.4 103.7 60.2 15.3 9.1 19.1 10.9 20.8 9.8.9-.6 1.2-20.1 1-84.6l-.3-83.9-16-9.4c-8.8-5.2-28.8-16.9-44.5-26s-38.3-22.3-50.2-29.3c-11.9-7.1-22.1-12.9-22.7-12.9-.5 0-1.7 1-2.5 2.2m13.2 14.8 4.2 3 .2 69.2.3 69.3 15.5 8.9c8.5 4.8 21.1 12.1 28 16.1s24 13.9 38 22 26.3 15.5 27.3 16.3c1.2 1.1 1.7 3 1.7 6.9 0 2.9-.4 5.3-.9 5.3-.4 0-14.7-8.1-31.7-18.1s-38.1-22.3-46.9-27.4-21.6-12.6-28.5-16.7l-12.5-7.4-.3-75.2c-.1-41.4.2-75.2.6-75.2.5 0 2.8 1.4 5 3m36.1 20 21.1 12.5v130.6l-5.7-3.2c-3.2-1.8-13.2-7.7-22.3-13l-16.5-9.6-.3-65.2c-.2-54.6 0-65.2 1.1-64.9.8.2 10.9 5.9 22.6 12.8m50.1 29.2c9.6 5.6 20.1 11.9 23.3 14l5.7 3.9v64.4c0 35.5-.4 64.5-.8 64.5-1.2 0-45.3-25.8-47.4-27.7-1.7-1.5-1.8-5.9-1.8-66.1 0-60.9.1-64.4 1.7-63.7 1 .3 9.7 5.2 19.3 10.7m-430.3-45.6c-.4.4-.7 5.9-.7 12.1 0 11.3 0 11.4 2.3 11.1 2.1-.3 2.2-.6 2.2-11.8 0-9.6-.3-11.5-1.5-11.8-.9-.1-1.9 0-2.3.4m194.3 19.3c0 11.4.1 12.1 2 12.1 2.6 0 3.1-2.5 2.8-14-.3-9-.4-9.5-2.5-9.8-2.3-.3-2.3-.2-2.3 11.7m0 36.1c0 12 0 12.1 2.3 11.8 2.1-.3 2.2-.6 2.2-11.8s-.1-11.5-2.2-11.8c-2.3-.3-2.3-.2-2.3 11.8m-58.8 14.9c-.9.6-1.2 3.9-1 12.2.3 11 .4 11.4 2.6 11.7s2.2.2 2.2-11.1c0-11.6-.9-14.6-3.8-12.8m58.8 21c0 11.3 1 14.2 3.7 10.6.8-1.2 1.3-4.8 1.3-10.1 0-9.5-.5-11.4-3.1-11.4-1.7 0-1.9.9-1.9 10.9m-59.3 16.7c-.4.4-.7 5.8-.7 12 0 8.4.3 11.3 1.3 11.7 3.2 1.2 3.8-.8 3.5-12.4-.2-9.3-.6-11.4-1.8-11.7-.9-.1-1.9 0-2.3.4m60 8.1c-1.1 1.1-.8 22.1.3 22.8.6.4 1.7.1 2.5-.5 2.3-1.9 2.1-21.5-.1-22.4-1.9-.7-1.9-.7-2.7.1m-60.2 29.5c-.3.8-.4 6.3-.3 12.4.3 10.1.4 10.9 2.3 10.9s2-.7 2-12c0-10.6-.2-12-1.8-12.3-.9-.2-1.9.3-2.2 1M1584 953.3c-6.3 3.9-35.6 21.6-65 39.3-34.4 20.7-53.9 33-54.7 34.5-.9 1.8-1.1 21.5-.8 83.1.2 44.5.7 81.3 1 81.8 1.8 2.9.4 3.7 107-59.8 14.3-8.5 26.8-16.2 27.8-17 1.6-1.4 1.7-6.7 1.7-84.2 0-85.5 0-85.1-3.9-84.9-.9 0-6.8 3.3-13.1 7.2m9 81.1v75.3l-17.7 10.5c-82.7 49.2-102.3 60.8-102.8 60.8-.3 0-.5-2.7-.5-6v-5.9l12.3-7.2c36.9-21.5 96.4-57.4 97.6-58.8 1.1-1.3 1.2-13.1.8-69.9-.5-52.5-.3-68.4.6-69.2 3-2.6 8.3-5.7 9-5.3.4.2.7 34.3.7 75.7m-18-.1v65.3l-7.7 4.5c-4.3 2.4-14.5 8.3-22.6 13.1-8.2 4.9-15.1 8.8-15.3 8.8s-.4-29-.4-64.4c0-57.1.2-64.5 1.6-65.6 1.4-1.2 43.5-26.9 44.2-27 .1 0 .2 29.4.2 65.3m-54 32.5v64.8l-23.8 14.2c-13.1 7.8-24.2 14.2-24.5 14.2-.4 0-.6-29.1-.5-64.8l.3-64.7 18-10.7c9.9-5.9 20.5-12.3 23.5-14.2s5.8-3.5 6.3-3.5c.4-.1.7 29 .7 64.7m-340 127.8c-23.4 14.1-52.6 31.6-65 38.9l-22.5 13.2-.3 83.1c-.2 83.1-.2 83.1 1.9 84.2 1.6.9 2.7.7 5.2-.8 25.7-15.6 103.5-62.4 113.7-68.5 7.4-4.3 14.1-8.4 14.8-8.9.9-.8 1.2-18.3 1-83.7l-.3-82.6-3-.2c-2.4-.2-11.9 5.1-45.5 25.3m41 60.4v73.9l-2.5 2.4c-2.7 2.5-115.9 70.7-117.4 70.7-1.2 0-.2-11.3 1.2-12.2.7-.5 24.6-14.8 53.2-31.9 28.6-17.2 52.8-31.9 53.8-32.7 1.6-1.4 1.7-6 1.7-70.3v-68.7l4.3-2.6c2.3-1.4 4.5-2.5 5-2.6.4 0 .7 33.3.7 74m-18 .9v64l-3.2 2.5c-6.8 5.1-40.3 24.5-41 23.8-.5-.5-.7-29.6-.6-64.7l.3-64 21-12.7c11.6-7 21.6-12.7 22.3-12.7.9-.1 1.2 13.3 1.2 63.8m-55.5 97.6c-4.7 3.6-44.8 27.5-46.2 27.5-1.1 0-1.3-10.6-1.1-64.6l.3-64.6 24.5-14.4 24.5-14.5.3 64.3.3 64.3zm196.8-233.7c-20 12-36.7 22.2-37.3 22.8-1.1 1.1-1.7 211.5-.6 213.3 1.6 2.5 6.3.4 29.6-13.5 13.5-8 29.2-17.3 35-20.7 5.8-3.3 11.5-6.9 12.8-8l2.2-2V1098h-2.7c-1.8.1-15.9 7.9-39 21.8m36.7 87.7c0 79.9-.3 101.6-1.2 102.5-.7.6-16.4 10-34.8 21l-33.5 20-.3-102.8c-.1-56.5.1-102.8.5-103 .5-.1 15.8-9.2 34.2-20.2 18.4-10.9 33.8-19.7 34.3-19.4.4.3.8 46.1.8 101.9"/><path d="M1321 1244c-2.2 2.2-2.6 6-.8 7.8 3.1 3.1 8.8-.1 8.8-4.9 0-4.9-4.4-6.5-8-2.9"/></svg>